<?xml version="1.0" encoding="UTF-8"?>
<svg id="Layer_2" data-name="Layer 2" xmlns="http://www.w3.org/2000/svg" viewBox="0 0 648.03 697.54">
  <defs>
    <style>
      .cls-1 {
        fill: #01fe81;
      }

      .cls-2 {
        fill: #eae8e8;
      }

      .cls-3 {
        fill: #ff8d8d;
      }

      .cls-4 {
        fill: #12e074;
      }

      .cls-5 {
        fill: #fffefe;
      }

      .cls-6 {
        fill: none;
        stroke: #000;
        stroke-miterlimit: 10;
        stroke-width: .2px;
      }
    </style>
  </defs>
  <g id="Layer_2-2" data-name="Layer 2">
    <g>
      <g>
        <g>
          <path d="M632.18,408.29c1.65.27,3.19.76,4.52,1.46,14.37,7.52,15.04,43.98.36,52.04-4.68,2.57-11.8,2.72-17.78.2-3.7-1.55-6.97-4.12-8.96-7.77-4.86-8.88.56-19.14,1.1-20.11-.57-1.43-3.8-10,.55-17.35,4.12-6.97,13.17-9.66,20.21-8.47Z"/>
          <path d="M629.02,382.25c6.4,6.13,7.88,16.71,3.16,26.04-7.04-1.19-16.09,1.5-20.21,8.47-4.35,7.35-1.12,15.92-.55,17.35-.54.97-5.96,11.23-1.1,20.11,1.99,3.65,5.26,6.22,8.96,7.77h0c-1.45.95-3.95,2.39-7.3,3.36-4.61,1.34-8.4,1.08-9.53,1.02-5.13-.27-12.1.82-18.87,2.13,5.63-3.59,9.47-7.69,9.58-12.27.13-5.57-5.38-6.81-7.2-14.42-2.04-8.52,3.52-12.67.86-18.91-1.15-2.69-4.01-6.21-12.1-8.58v-.07c1.96-.05,3.98-.17,6.04-.37,9.99-.97,13.66-3.15,15.82-4.87,11.82-9.41,6.3-27.3,15.81-31.63,5.62-2.56,12.88,1.27,16.63,4.87Z"/>
          <path class="cls-1" d="M285.21,508.41c.19,4.64-1.18,7.07-2.38,8.41-4.52,5.04-11.74.27-20.99,5.1-5.75,3-6.21,6.54-11.02,7.14-4.45.56-8.44-1.93-11.08-4.07-9.66-13.65-32.03-32.38-34.07-49.84-1.49-12.86,7.26-31.77,51.82-58.45,40.1,11.78,74.65,14.55,98.95,14.75-1.69,4.69-3.73,11.2-5.31,19.1-7.44,37.4-3.45,98.72,35.29,121.05,20.89,12.05,44.12,8.27,46.99,7.76,6.54-1.15,21.3-4.72,33.85-16.04,30.39-27.41,22.41-77.31,19.94-92.8-2.02-12.65-7.05-33.35-21.43-56.33,7.33-2.75,13.33-5.37,17.55-7.31,0,0,0-.01.02-.01,2.03-1.09,5.48-2.77,9.92-4.05,27.45-7.91,47.99,12.2,81.46,11.43v.07c8.09,2.37,10.95,5.89,12.1,8.58,2.66,6.24-2.9,10.39-.86,18.91,1.82,7.61,7.33,8.85,7.2,14.42-.11,4.58-3.95,8.68-9.58,12.27-5.93,1.14-11.71,2.44-16,3.14-10.16,1.64-25.23,1.97-46.28-4.23,7.89,35.92,5.25,65.17,3.25,87.23-1.46,16.2-3.36,35.93-10.86,58.4-3.62,10.84-5.37,12.8-8.92,25.14-4.55,15.81-5.26,25.04-8.49,29.3-.82,1.1-1.81,1.86-3.07,2.33-6.02,2.25-9.97-5.37-22.31-4.86-7.79.32-10.21,3.53-14.3,3.42-1.55-.04-3.21-.55-4.96-1.76-6.4-4.39-14.04-18-22.44-51.25-5.83,1.51-12.12,2.77-18.82,3.66-14,1.85-26.36,1.58-36.3.61-23.53,21.56-34.2,37.69-39.54,48.87-1.33,2.79-4.05,8.85-8.57,11.14-.8.41-1.66.69-2.58.82-7.25,1.01-10.81-8.87-21.9-10.95-9.36-1.75-14.03,3.94-18.46,3.04-.96-.19-1.9-.7-2.78-1.57-4.71-4.59-8.14-19.39-8.67-52-.26-15.73.17-35.61,1.45-60.5,4.79-2.46,8.65-5.47,10.81-7.9,7.33-8.23,7.87-24.04,1.37-42.17Z"/>
          <path d="M496.28,667.48c1.1,6.18-.34,9.96-1.55,12.04-7.39,12.73-36.02,13-42.78,1.04-1-1.76-2.82-6.08-.31-13.95,1.75,1.21,3.41,1.72,4.96,1.76,4.09.11,6.51-3.1,14.3-3.42,12.34-.51,16.29,7.11,22.31,4.86,1.26-.47,2.25-1.23,3.07-2.33Z"/>
          <path class="cls-5" d="M487.2,470.52c2.47,15.49,10.45,65.39-19.94,92.8-12.55,11.32-27.31,14.89-33.85,16.04-2.87.51-26.1,4.29-46.99-7.76-38.74-22.33-42.73-83.65-35.29-121.05,1.58-7.9,3.62-14.41,5.31-19.1h.04c23.24.18,62.82.13,109.07-17.18.07-.03.15-.06.22-.08,14.38,22.98,19.41,43.68,21.43,56.33Z"/>
          <path d="M325.97,679.64c-.45,3.68-1.72,8.05-5.02,11.47-9.81,10.18-33.16,7.36-39.74-5.28-.96-1.83-3.08-6.8-.96-14.85.88.87,1.82,1.38,2.78,1.57,4.43.9,9.1-4.79,18.46-3.04,11.09,2.08,14.65,11.96,21.9,10.95.92-.13,1.78-.41,2.58-.82Z"/>
          <path d="M285.21,508.41c6.5,18.13,5.96,33.94-1.37,42.17-2.16,2.43-6.02,5.44-10.81,7.9-1.76.91-3.64,1.74-5.61,2.44-6.08,2.16-17.1,6.08-23.71.14-4.27-3.83-5.32-10.5-4.27-15.34.87-4.03,3.01-5.92,3.95-7.61,1.9-3.39.06-7.88-3.65-13.12,2.64,2.14,6.63,4.63,11.08,4.07,4.81-.6,5.27-4.14,11.02-7.14,9.25-4.83,16.47-.06,20.99-5.1,1.2-1.34,2.57-3.77,2.38-8.41Z"/>
          <path class="cls-1" d="M273.03,558.48c-1.28,24.89-1.71,44.77-1.45,60.5-64.1,43.78-148.98,40.73-207.7-6.59-.85-.69-1.7-1.39-2.54-2.1,6.18.27,14.4-.42,19.24-5.89,6.26-7.08.43-14.9,5.78-28.59,5-12.8,12.22-11.44,14.9-23.12,2.29-9.94-2.42-13.21.92-23.42,2.63-8.04,5.92-7.13,9.3-15.58,4.96-12.43-1.22-16.73,3.57-26.59,4.6-9.47,12.18-9.4,14.5-18.36,1.48-5.69-.2-11.05-1.72-14.52,19,.89,45.7,5.26,77.84,20.93,2.04,17.46,24.41,36.19,34.07,49.84,3.71,5.24,5.55,9.73,3.65,13.12-.94,1.69-3.08,3.58-3.95,7.61-1.05,4.84,0,11.51,4.27,15.34,6.61,5.94,17.63,2.02,23.71-.14,1.97-.7,3.85-1.53,5.61-2.44Z"/>
          <path class="cls-5" d="M127.83,454.22c1.52,3.47,3.2,8.83,1.72,14.52-2.32,8.96-9.9,8.89-14.5,18.36-4.79,9.86,1.39,14.16-3.57,26.59-3.38,8.45-6.67,7.54-9.3,15.58-3.34,10.21,1.37,13.48-.92,23.42-2.68,11.68-9.9,10.32-14.9,23.12-5.35,13.69.48,21.51-5.78,28.59-4.84,5.47-13.06,6.16-19.24,5.89h-.01C9.19,566.55-12.26,494.42,7.51,427.35c6.23,6.21,16.48,15.01,31.03,21.29,30.04,12.97,53.65,4.49,86.38,5.47.95.03,1.92.07,2.91.11Z"/>
        </g>
        <g>
          <path class="cls-1" d="M601.96,248.16c9.34,6.3,18.28,9.27,23.75,10.73-30.69,5.47-71.47,16.77-114.12,41.43-16.49,9.53-30.79,19.63-43.03,29.45-2.08-1.09-5.65-2.84-10.39-4.4-.08-.96-.34-1.86-.8-2.65-5.24-8.99-36.7-5.29-44.91,4.02-16.32,6.65-25.75,18.17-28.22,21.33-28.95-5.83-62.78-10.54-100.65-12.01-56.46-2.19-105.47,3.48-144.27,10.91,4.67-3.02,11.81-8.36,18.05-16.85,12.31-16.76,11.52-32.71,17.95-61.28,0,0,1.33-5.89,12.26-40.85.04-.14.09-.28.13-.43,1.12,1.97,2.28,3.94,3.47,5.93,8.12-23.17,26.39-64.4,66.78-99.2,17.08-14.72,34.11-24.83,48.52-31.81-1.02-.95-2.11-1.94-3.25-2.96,16.99-7.9,35.85-13.55,56.6-15.78,16.52-1.77,32.61-1.2,47.94,1.13-2.24,2.53-4.24,4.82-5.98,6.82,22.17,3.53,61.27,13,99.75,41.83,20.12,15.09,34.53,31.31,44.48,44.63.43-2.18.84-4.33,1.22-6.47,6.6,8.42,9.53,12.91,9.53,12.91,18.74,28.7,23.23,48.75,45.19,63.57ZM497.92,301.76c16.57-3.43,26.19-24.62,21.48-47.33-.14-.68-.29-1.36-.46-2.03-.04-.22-.08-.44-.13-.66-1.32-6.34-3.9-11.97-7.28-16.44-7.74-11.58-19.35-18.1-30.65-15.76-16.57,3.44-26.19,24.62-21.48,47.33,4.7,22.7,21.95,38.32,38.52,34.89ZM336.04,326.35c16.57-3.43,26.19-24.62,21.48-47.32-.14-.68-.29-1.36-.46-2.02-.04-.23-.08-.45-.13-.68-1.33-6.42-3.96-12.1-7.38-16.59-.02-.02-.04-.04-.05-.06-7.73-11.45-19.27-17.87-30.5-15.55-16.56,3.44-26.18,24.63-21.48,47.33,4.71,22.7,21.95,38.33,38.52,34.89Z"/>
          <path class="cls-5" d="M625.71,258.89c-8.24,18.29-58.61,125.42-180,164.68-105.1,33.98-223.15,4.06-306.39-76.6,38.8-7.43,87.81-13.1,144.27-10.91,37.87,1.47,71.7,6.18,100.65,12.01,2.47-3.16,11.9-14.68,28.22-21.33-.93,1.06-1.56,2.19-1.82,3.38-1.71,7.87,12.85,18.27,21.06,20.85,4.06,1.28,6.86.74,7.54.6,2.35-.5,4.99-1.78,8.27-5.37,3.32-3.63,11.28-13.99,10.66-20.83,4.74,1.56,8.31,3.31,10.39,4.4,12.24-9.82,26.54-19.92,43.03-29.45,42.65-24.66,83.43-35.96,114.12-41.43ZM463.54,370.25c.28-2.37.99-8.34-2.22-10.73-3.84-2.86-11.04,1.11-14.64,2.81-24.79,11.75-47.82-3.65-53.53,4.95-5.87,8.86,7.89,41.15,32.85,42.54,23.83,1.33,36-26.7,37.54-39.57Z"/>
          <path class="cls-1" d="M545.96,38.55c6.15,27.81,12.11,73.45,1.28,133.13-5.07-6.49-12.34-15.31-22.1-26.2-22.21-24.79-65.46-52.74-117.37-60.61,27.69-31.19,91.26-98,121.32-82.25,5.97,3.12,11.08,9.74,16.87,35.93Z"/>
          <path class="cls-1" d="M547.24,171.68c-.38,2.14-.79,4.29-1.22,6.47-9.95-13.32-24.36-29.54-44.48-44.63-38.48-28.83-77.58-38.3-99.75-41.83,1.74-2,3.74-4.29,5.98-6.82,51.91,7.87,95.16,35.82,117.37,60.61,9.76,10.89,17.03,19.71,22.1,26.2Z"/>
          <path class="cls-5" d="M519.4,254.43c4.71,22.71-4.91,43.9-21.48,47.33-16.57,3.43-33.82-12.19-38.52-34.89-4.71-22.71,4.91-43.89,21.48-47.33,11.3-2.34,22.91,4.18,30.65,15.76-5.92-7.85-14.26-12.13-22.39-10.44-12.77,2.64-20.17,18.97-16.55,36.45,3.62,17.49,16.91,29.53,29.67,26.88,12.6-2.61,19.98-18.56,16.68-35.79.17.67.32,1.35.46,2.03Z"/>
          <path d="M518.94,252.4c3.3,17.23-4.08,33.18-16.68,35.79-12.76,2.65-26.05-9.39-29.67-26.88-3.62-17.48,3.78-33.81,16.55-36.45,8.13-1.69,16.47,2.59,22.39,10.44,3.27,4.89,5.84,10.68,7.41,17.1Z"/>
          <path d="M461.32,359.52c3.21,2.39,2.5,8.36,2.22,10.73-1.54,12.87-13.71,40.9-37.54,39.57-24.96-1.39-38.72-33.68-32.85-42.54,5.71-8.6,28.74,6.8,53.53-4.95,3.6-1.7,10.8-5.67,14.64-2.81ZM431.71,404.46c7.59-1.46,12.42-6.42,14.42-8.76-3.1-2.98-9.09-7.88-18-10.47-3.77-1.1-12-3.38-21.45-.51-2.4.72-4.31,1.61-5.61,2.29,1.03,2.13,2.81,5.18,5.74,8.17,2.58,2.64,12.38,11.69,24.9,9.28Z"/>
          <path d="M458.17,325.37c.62,6.84-7.34,17.2-10.66,20.83-3.28,3.59-5.92,4.87-8.27,5.37-.68.14-3.48.68-7.54-.6-8.21-2.58-22.77-12.98-21.06-20.85.26-1.19.89-2.32,1.82-3.38,4.51-1.84,9.56-3.3,15.13-4.12,12.37-1.81,22.99.24,30.58,2.75Z"/>
          <path d="M457.37,322.72c.46.79.72,1.69.8,2.65-7.59-2.51-18.21-4.56-30.58-2.75-5.57.82-10.62,2.28-15.13,4.12,8.21-9.31,39.67-13.01,44.91-4.02Z"/>
          <path class="cls-3" d="M446.13,395.7c-2,2.34-6.83,7.3-14.42,8.76-12.52,2.41-22.32-6.64-24.9-9.28-2.93-2.99-4.71-6.04-5.74-8.17,1.3-.68,3.21-1.57,5.61-2.29,9.45-2.87,17.68-.59,21.45.51,8.91,2.59,14.9,7.49,18,10.47Z"/>
          <path class="cls-5" d="M357.52,279.03c4.71,22.7-4.91,43.89-21.48,47.32-16.57,3.44-33.81-12.19-38.52-34.89-4.7-22.7,4.92-43.89,21.48-47.33,11.23-2.32,22.77,4.1,30.5,15.55-5.92-7.72-14.18-11.9-22.24-10.23-12.76,2.65-20.17,18.97-16.55,36.46,3.63,17.48,16.91,29.52,29.67,26.87,12.6-2.61,19.99-18.54,16.68-35.77.17.66.32,1.34.46,2.02Z"/>
          <path d="M357.06,277.01c3.31,17.23-4.08,33.16-16.68,35.77-12.76,2.65-26.04-9.39-29.67-26.87-3.62-17.49,3.79-33.81,16.55-36.46,8.06-1.67,16.32,2.51,22.24,10.23.01.02.03.04.05.06,3.32,4.93,5.93,10.78,7.51,17.27Z"/>
          <path class="cls-1" d="M303.23,99.52c1.14,1.02,2.23,2.01,3.25,2.96-14.41,6.98-31.44,17.09-48.52,31.81-40.39,34.8-58.66,76.03-66.78,99.2-1.19-1.99-2.35-3.96-3.47-5.93,8.89-27.88,47.05-96.21,115.52-128.04Z"/>
          <path class="cls-1" d="M280.84,82.01c9.08,6.17,16.55,12.27,22.39,17.51-68.47,31.83-106.63,100.16-115.52,128.04-28.97-50.71-35.51-94.23-36.98-120.08-1.48-25.81-2.29-44.6,9.95-55.15,25.37-21.85,88.06,7.86,120.16,29.68Z"/>
        </g>
      </g>
      <g>
        <path class="cls-5" d="M609.86,427.73c-.35-3.25-.08-7.27,2.11-10.97,4.12-6.97,13.17-9.66,20.21-8.47,1.65.27,3.19.76,4.52,1.46,14.37,7.52,15.04,43.98.36,52.04-4.68,2.57-11.8,2.72-17.78.2-3.7-1.55-6.97-4.12-8.96-7.77-4.86-8.88.56-19.14,1.1-20.11-.28-.71-1.22-3.18-1.56-6.38Z"/>
        <path class="cls-5" d="M629.02,382.25c6.4,6.13,7.88,16.71,3.16,26.04-7.04-1.19-16.09,1.5-20.21,8.47-2.19,3.7-2.46,7.72-2.11,10.97-.33.64-.73,1.62-.91,2.86-.21,1.41-.04,2.58.13,3.3-2.67,4.25-5.37,10.24-3.83,16.36,1.44,5.78,5.92,8.69,4.75,11.89-.76,2.1-3.71,3.7-10.5,4.18v.03c-4.69.15-10.37,1.08-15.92,2.15,5.63-3.59,9.47-7.69,9.58-12.27.13-5.57-5.38-6.81-7.2-14.42-2.04-8.52,3.52-12.67.86-18.91-1.15-2.69-4.01-6.21-12.1-8.58v-.07c1.96-.05,3.98-.17,6.04-.37,9.99-.97,13.66-3.15,15.82-4.87,11.82-9.41,6.3-27.3,15.81-31.63,5.62-2.56,12.88,1.27,16.63,4.87Z"/>
        <path class="cls-2" d="M619.28,461.99h0c-1.45.95-3.95,2.39-7.3,3.36-4.61,1.34-8.4,1.08-9.53,1.02-.93-.05-1.92-.05-2.95-.02v-.03c6.79-.48,9.74-2.08,10.5-4.18,1.17-3.2-3.31-6.11-4.75-11.89-1.54-6.12,1.16-12.11,3.83-16.36-.17-.72-.34-1.89-.13-3.3.18-1.24.58-2.22.91-2.86.34,3.2,1.28,5.67,1.56,6.38-.54.97-5.96,11.23-1.1,20.11,1.99,3.65,5.26,6.22,8.96,7.77Z"/>
        <path class="cls-4" d="M572.31,470.77c-1.71.34-3.3.64-4.73.87-10.16,1.64-25.23,1.97-46.28-4.23-.35-1.6-.73-3.21-1.12-4.83-.97-4.01-2.02-7.84-3.1-11.49,2.13,3.06,5.77,7.53,11.45,11.33,8.58,5.73,17.14,6.82,25.45,7.88,4.44.57,10.72,1.03,18.33.47Z"/>
        <path class="cls-4" d="M514.66,30.81c15.51,4.59,18.8,51.03,9.82,113.94-.03-.04-.07-.07-.11-.11-7.57-8.31-17.48-16.93-29.26-25.01-.15-.12-.3-.22-.46-.32-.81-.57-1.63-1.13-2.46-1.69-13.71-9.21-26.66-15.41-37.22-19.61l-.3-.12c4.3-7.94,39.99-72.99,59.99-67.08Z"/>
        <path class="cls-5" d="M496.28,667.48c1.1,6.18-.34,9.96-1.55,12.04-7.39,12.73-36.02,13-42.78,1.04-1-1.76-2.82-6.08-.31-13.95,1.75,1.21,3.41,1.72,4.96,1.76,4.09.11,6.51-3.1,14.3-3.42,12.34-.51,16.29,7.11,22.31,4.86,1.26-.47,2.25-1.23,3.07-2.33Z"/>
        <path class="cls-2" d="M493.26,402.82c.41-.12.81-.23,1.21-.33-3.15,1.74-6.38,3.44-9.67,5.08.78-.7,1.53-1.39,2.23-2.05,2.36-.99,4.44-1.9,6.23-2.7Z"/>
        <path class="cls-2" d="M487.03,405.52c-.7.66-1.45,1.35-2.23,2.05-5.8,2.91-11.8,5.66-18.02,8.24-.45-.73-.9-1.46-1.36-2.2,8.67-2.87,15.94-5.7,21.61-8.09Z"/>
        <path class="cls-4" d="M484.8,407.57c-4.06,3.67-9.13,7.84-15.17,12.02-.15.1-.3.21-.45.3-.77-1.35-1.57-2.71-2.4-4.08,6.22-2.58,12.22-5.33,18.02-8.24Z"/>
        <path class="cls-2" d="M466.78,415.81c.83,1.37,1.63,2.73,2.4,4.08-39.15,26.88-84.22,30.01-117.34,27.33.82-3.65,1.73-6.95,2.63-9.86,30.73.32,61.5-4.18,91.24-13.79,7.28-2.35,14.3-4.95,21.07-7.76Z"/>
        <path class="cls-2" d="M465.42,413.61c.46.74.91,1.47,1.36,2.2-6.77,2.81-13.79,5.41-21.07,7.76-29.74,9.61-60.51,14.11-91.24,13.79.74-2.41,1.47-4.55,2.14-6.39l.09-2.18c45.02,2.1,83.02-6.67,108.72-15.18Z"/>
        <path class="cls-4" d="M449.72,665.03h-.01c-5.99-5.68-12.94-19.7-20.51-49.67,7.94-2.04,15.06-4.53,21.28-7.09-2.71,3.72-8.46,12.69-9.35,25.52-1.11,16.09,6.16,27.7,8.59,31.24Z"/>
        <path class="cls-2" d="M254.81,418.32c-.33.2-.65.4-.97.59-41.75-15.15-80.96-39.42-114.52-71.94,7.73-1.48,15.86-2.89,24.37-4.18,19.68,19.68,65.26,59.81,136.34,77.66,19.78,4.96,38.78,7.51,56.67,8.34l-.09,2.18c-.67,1.84-1.4,3.98-2.14,6.39-31.99-.33-63.94-5.88-94.61-16.33-1.66-.86-3.34-1.76-5.05-2.71Z"/>
        <path class="cls-4" d="M354.47,437.36c-.9,2.91-1.81,6.21-2.63,9.86-22.91-1.86-40.1-6.51-45.66-8.01-11.52-3.11-27.75-8.48-46.32-18.18,30.67,10.45,62.62,16,94.61,16.33Z"/>
        <path class="cls-5" d="M325.97,679.64c-.45,3.68-1.72,8.05-5.02,11.47-9.81,10.18-33.16,7.36-39.74-5.28-.96-1.83-3.08-6.8-.96-14.85.88.87,1.82,1.38,2.78,1.57,4.43.9,9.1-4.79,18.46-3.04,11.09,2.08,14.65,11.96,21.9,10.95.92-.13,1.78-.41,2.58-.82Z"/>
        <path class="cls-4" d="M288.6,541.3l.15.04c-.5,2.89-1.67,7.57-4.86,12.26-2.8,4.12-6.72,7.6-11.13,10.22.09-1.75.18-3.53.27-5.34,4.79-2.46,8.65-5.47,10.81-7.9,2.19-2.46,3.78-5.6,4.76-9.28Z"/>
        <path class="cls-5" d="M285.21,508.41c4.55,12.7,5.65,24.27,3.39,32.89-.98,3.68-2.57,6.82-4.76,9.28-2.16,2.43-6.02,5.44-10.81,7.9-1.76.91-3.64,1.74-5.61,2.44-6.08,2.16-17.1,6.08-23.71.14-4.27-3.83-5.32-10.5-4.27-15.34.87-4.03,3.01-5.92,3.95-7.61,1.9-3.39.06-7.88-3.65-13.12,2.64,2.14,6.63,4.63,11.08,4.07,4.81-.6,5.27-4.14,11.02-7.14,9.25-4.83,16.47-.06,20.99-5.1,1.2-1.34,2.57-3.77,2.38-8.41Z"/>
        <path class="cls-4" d="M273.03,558.48c-.09,1.81-.18,3.59-.27,5.34-10.12,6.03-22.82,7.54-30.45,1.97-.29-.21-6.27-5.19-7.58-12.59-.79-4.44.64-8.12,1.94-12.11,2.06-5.3-.73-10.27-3.91-14.48-3.21-4.53-6.76-8.07-9.55-12.77-5.42-8.93-10.2-19.34-14.4-28.66,6.93,14.35,23.1,28.75,30.93,39.81,3.71,5.24,5.55,9.73,3.65,13.12-.94,1.69-3.08,3.58-3.95,7.61-1.05,4.84,0,11.51,4.27,15.34,6.61,5.94,17.63,2.02,23.71-.14,1.97-.7,3.85-1.53,5.61-2.44Z"/>
        <path class="cls-4" d="M271.52,606.45c-.03,4.44,0,8.62.06,12.53-52.81,36.07-119.71,40.35-174.48,14.28,18.87,5.63,57.44,14.29,103.99,3.85,31.98-7.17,55.79-20.68,70.43-30.66Z"/>
        <path class="cls-2" d="M259.86,421.03c-2.01-.68-4.02-1.38-6.02-2.12.32-.19.64-.39.97-.59,1.71.95,3.39,1.85,5.05,2.71Z"/>
        <path class="cls-4" d="M262.11,124.55c-8.94,7.55-18.86,16.92-28.88,28.34-.74.84-1.48,1.69-2.22,2.55-9.18,10.64-16.95,21.42-23.32,31.55-.02.04-.04.07-.07.1-.39.61-.77,1.22-1.14,1.83-28.19-55.34-37.11-100.13-23.39-109.43,12.64-8.58,45.59,12.31,79.02,45.06Z"/>
        <path class="cls-4" d="M200.3,211.07h0c-3.95,8.48-6.91,16.12-9.12,22.42-1.19-1.99-2.35-3.96-3.47-5.93,1.82-5.69,4.86-13.08,9.13-21.49,1.17,1.74,2.32,3.4,3.46,5Z"/>
        <path class="cls-4" d="M191.18,233.49c2.21-6.3,5.17-13.94,9.12-22.41-8.49,18.5-11.91,34.21-13.46,45.28-4.49,32.19,2.69,55.28-13.06,76.22-3.67,4.86-7.51,8.2-10.09,10.21-8.51,1.29-16.64,2.7-24.37,4.18,4.67-3.02,11.81-8.36,18.05-16.85,12.31-16.76,11.52-32.71,17.95-61.28,0,0,1.33-5.89,12.26-40.85.04-.14.09-.28.13-.43,1.12,1.97,2.28,3.94,3.47,5.93Z"/>
        <path class="cls-4" d="M196.84,206.07c-4.27,8.41-7.31,15.8-9.13,21.49-28.97-50.71-35.51-94.23-36.98-120.08-.65-11.4-1.18-21.44-.5-29.99,1.9,18.67,6.31,43.45,16.78,71.04,9.04,23.83,20.04,43.05,29.83,57.54Z"/>
      </g>
    </g>
    <g>
      <g>
        <path class="cls-6" d="M253.86,418.9c-41.41,25.53-49.64,43.75-48.18,56.25,2.81,24.16,44.57,50.75,37.72,62.96-.95,1.68-3.08,3.57-3.95,7.6-1.04,4.84,0,11.52,4.27,15.35,6.62,5.94,17.64,2.02,23.71-.14,7.34-2.61,13.47-7.03,16.42-10.34,11.17-12.55,6.55-42.72-14.7-71.88"/>
        <path class="cls-6" d="M273.03,558.48c-4.44,86.16,1.42,112.33,10,114.07,4.42.89,9.09-4.79,18.45-3.04,11.09,2.08,14.65,11.96,21.9,10.95,6.09-.85,9.58-8.68,11.15-11.96,5.35-11.18,16.01-27.31,39.54-48.87,9.94.97,22.3,1.24,36.3-.61,23.28-3.07,41.52-10.74,53.53-17.03"/>
        <path class="cls-6" d="M429.2,615.36c10.69,42.33,20.16,52.83,27.4,53.01,4.09.1,6.51-3.1,14.3-3.42,12.34-.51,16.29,7.11,22.31,4.87,6.18-2.31,5.85-11.79,11.56-31.63,3.55-12.35,5.3-14.3,8.92-25.14,7.5-22.47,9.4-42.2,10.86-58.39,2.08-23.05,4.87-53.94-4.37-92.07-4.49-18.49-10.49-33.26-15.21-43.39"/>
        <path class="cls-6" d="M494.32,402.53c28.53-7.54,49.78,14.9,86.45,11.35,9.99-.97,13.65-3.15,15.82-4.87,11.82-9.41,6.31-27.3,15.82-31.63,5.62-2.56,12.88,1.27,16.63,4.87,6.47,6.21,7.92,16.98,2.99,26.38"/>
        <path class="cls-6" d="M637.06,461.78c-7.58,4.16-21.52,1.99-26.74-7.57-4.86-8.88.57-19.14,1.1-20.11-.56-1.43-3.79-10,.55-17.34,5.08-8.6,17.68-10.7,24.73-7.01,14.37,7.52,15.05,43.98.37,52.03Z"/>
        <path class="cls-6" d="M619.29,462c-1.45.94-3.95,2.39-7.3,3.36-4.62,1.34-8.41,1.07-9.53,1.01-9.62-.51-25.68,3.78-34.88,5.27-10.15,1.64-25.23,1.97-46.29-4.23"/>
        <path class="cls-6" d="M280.25,670.98c-2.12,8.05,0,13.02.96,14.86,6.58,12.63,29.94,15.45,39.74,5.27,3.3-3.42,4.57-7.8,5.02-11.47"/>
        <path class="cls-6" d="M451.65,666.61c-2.52,7.87-.7,12.19.3,13.95,6.77,11.96,35.39,11.68,42.79-1.04,1.21-2.08,2.65-5.86,1.55-12.04"/>
        <path class="cls-6" d="M271.58,618.98c-64.1,43.78-148.98,40.73-207.7-6.59C9.89,568.88-12.57,495.5,7.51,427.34c6.22,6.21,16.48,15.01,31.02,21.29,30.04,12.97,53.65,4.49,86.38,5.47,19.14.57,46.93,4.55,80.76,21.04"/>
        <path class="cls-6" d="M61.33,610.29c6.19.27,14.42-.42,19.26-5.89,6.26-7.08.43-14.9,5.78-28.59,5-12.8,12.22-11.44,14.9-23.12,2.28-9.94-2.43-13.21.91-23.42,2.63-8.05,5.92-7.13,9.3-15.59,4.97-12.43-1.22-16.72,3.57-26.59,4.6-9.46,12.18-9.39,14.5-18.35,1.47-5.69-.2-11.05-1.72-14.52"/>
        <path class="cls-6" d="M239.74,524.98c2.64,2.14,6.63,4.63,11.08,4.08,4.81-.6,5.27-4.15,11.03-7.15,9.25-4.83,16.47-.06,20.99-5.09,1.2-1.34,2.56-3.77,2.38-8.42"/>
        <path class="cls-6" d="M574.72,414.32c8.09,2.37,10.95,5.89,12.1,8.58,2.66,6.24-2.9,10.38-.86,18.91,1.82,7.61,7.34,8.85,7.21,14.42-.11,4.66-4.09,8.82-9.9,12.47"/>
        <path class="cls-6" d="M354.48,437.33c-1.16,3.78-2.35,8.22-3.34,13.21-7.44,37.4-3.46,98.73,35.28,121.06,20.9,12.04,44.12,8.27,47,7.76,6.54-1.15,21.3-4.72,33.85-16.05,30.38-27.4,22.41-77.3,19.93-92.8-1.97-12.35-6.82-32.39-20.43-54.73"/>
      </g>
      <g>
        <path class="cls-6" d="M407.77,84.88c27.67-31.18,91.26-98.02,121.33-82.26,5.97,3.12,11.08,9.74,16.87,35.93,6.15,27.83,12.11,73.48,1.28,133.17"/>
        <path class="cls-6" d="M187.69,227.52c-28.96-50.69-35.49-94.2-36.96-120.04-1.47-25.81-2.28-44.61,9.96-55.15,25.37-21.85,88.05,7.86,120.16,29.68,9.07,6.16,16.53,12.26,22.37,17.48"/>
        <path class="cls-6" d="M625.71,258.88c-8.24,18.29-58.6,125.43-180,164.68-105.09,33.98-223.14,4.07-306.38-76.6,4.67-3.03,11.8-8.36,18.04-16.85,12.31-16.76,11.53-32.71,17.96-61.28,0,0,1.33-5.9,12.26-40.85,10.76-34.42,67.51-133.02,172.26-144.26,72.46-7.77,136.53,29.63,165.31,61.74,22.42,25.02,31.63,39.11,31.63,39.11,18.74,28.7,23.23,48.75,45.19,63.57,9.33,6.3,18.28,9.26,23.74,10.72Z"/>
        <path class="cls-6" d="M426.01,409.82c-24.96-1.39-38.73-33.68-32.85-42.54,5.71-8.61,28.74,6.8,53.53-4.95,3.59-1.7,10.8-5.67,14.64-2.81,3.21,2.39,2.49,8.36,2.21,10.72-1.53,12.87-13.71,40.9-37.53,39.57Z"/>
        <path class="cls-6" d="M439.24,351.57c-.68.15-3.48.68-7.53-.59-8.22-2.58-22.78-12.99-21.06-20.85,2.54-11.69,40.9-17.41,46.72-7.4,3.75,6.45-6.06,19.34-9.85,23.49-3.28,3.58-5.93,4.86-8.27,5.36Z"/>
        <path class="cls-6" d="M139.32,346.97c38.8-7.43,87.8-13.1,144.27-10.91,37.87,1.47,71.69,6.18,100.65,12.01,3.14-4.02,17.66-21.7,43.35-25.45,20.08-2.93,35.55,4.31,40.97,7.16,12.24-9.82,26.54-19.92,43.03-29.45,42.65-24.65,83.43-35.96,114.11-41.43"/>
        <path class="cls-6" d="M401.07,387.01c1.31-.68,3.22-1.57,5.62-2.3,9.45-2.86,17.67-.59,21.45.51,8.91,2.59,14.9,7.5,18,10.47-2,2.35-6.84,7.3-14.43,8.77-12.52,2.41-22.32-6.65-24.89-9.28-2.93-3-4.71-6.05-5.74-8.17Z"/>
      </g>
    </g>
    <ellipse class="cls-6" cx="327.52" cy="285.24" rx="30.64" ry="41.98" transform="translate(-51.07 72.39) rotate(-11.71)"/>
    <ellipse class="cls-6" cx="333.82" cy="281.12" rx="23.6" ry="32.34" transform="translate(-50.1 73.59) rotate(-11.71)"/>
    <ellipse class="cls-6" cx="489.4" cy="260.65" rx="30.64" ry="41.98" transform="translate(-42.71 104.73) rotate(-11.71)"/>
    <ellipse class="cls-6" cx="495.7" cy="256.52" rx="23.6" ry="32.34" transform="translate(-41.74 105.92) rotate(-11.71)"/>
    <path d="M280.39,208.12c-1.63-2.59,6.64-12.62,17.43-16.92,2.06-.82,10.37-3.88,20.12-1.2,3.32.91,10.27,2.83,13.31,8.98.29.59,2.75,5.71.75,7.88-2.48,2.69-9.22-2.03-17.93-3.81-18.28-3.75-31.73,8.18-33.69,5.07Z"/>
    <path d="M499.97,179.01c1.32-2.76-8.06-11.77-19.28-14.78-2.14-.57-10.76-2.65-20.13,1.15-3.19,1.29-9.87,4-12.17,10.47-.22.62-2.07,5.99.17,7.91,2.78,2.39,8.92-3.08,17.36-5.87,17.72-5.85,32.47,4.43,34.05,1.12Z"/>
  </g>
</svg>