<svg width="52" height="52" viewBox="0 0 52 52" fill="none" xmlns="http://www.w3.org/2000/svg">
<g clip-path="url(#clip0_2173_10790)">
<path d="M52 26C52 11.6406 40.3594 0 26 0C11.6406 0 0 11.6406 0 26C0 40.3594 11.6406 52 26 52C40.3594 52 52 40.3594 52 26Z" fill="#6F6FFB"/>
<path d="M14.625 34.125C16.8687 34.125 18.6875 32.3062 18.6875 30.0625C18.6875 27.8188 16.8687 26 14.625 26C12.3813 26 10.5625 27.8188 10.5625 30.0625C10.5625 32.3062 12.3813 34.125 14.625 34.125Z" fill="#F0BD70"/>
<path d="M14.625 33.3125H28.4375V53.5194C28.4375 53.5194 25.4776 55.25 21.5312 55.25C17.5849 55.25 14.625 52.4249 14.625 52.4249V33.3125Z" fill="#F0BD70"/>
<path d="M28.4372 43.7677C28.4372 48.3616 27.7206 47.9261 23.0609 47.9261C18.4012 47.9261 16.2513 44.2024 16.2513 39.6086C16.2513 35.0147 16.0742 30.875 19.8344 30.875C30.4684 31.2812 28.4372 39.1739 28.4372 43.7677Z" fill="#E9B05B"/>
<path d="M37.2828 29.3312C37.2828 36.5804 40.2777 45.4943 27.2192 45.4943C14.1607 45.4943 14.1607 36.5804 14.1607 29.3312C12.1879 20.7187 12.5942 10.5625 26.0004 10.5625C39.4067 10.5625 37.2828 22.0813 37.2828 29.3312Z" fill="#FFCB7E"/>
<path d="M30.875 33.3125H30.0625C29.6138 33.3125 29.25 33.6763 29.25 34.125C29.25 34.5737 29.6138 34.9375 30.0625 34.9375H30.875C31.3237 34.9375 31.6875 34.5737 31.6875 34.125C31.6875 33.6763 31.3237 33.3125 30.875 33.3125Z" fill="#F0BD70"/>
<path d="M30.875 48.75H13C8.96142 48.75 5.6875 52.0239 5.6875 56.0625V60.125C5.6875 64.1636 8.96142 67.4375 13 67.4375H30.875C34.9136 67.4375 38.1875 64.1636 38.1875 60.125V56.0625C38.1875 52.0239 34.9136 48.75 30.875 48.75Z" fill="#E05A33"/>
<path fill-rule="evenodd" clip-rule="evenodd" d="M37.3495 26.3919C38.0239 26.0113 38.5402 25.4024 38.8054 24.6748C39.0705 23.9473 39.0671 23.1489 38.7958 22.4237C39.5375 22.0661 40.1158 21.4403 40.4139 20.6728C40.712 19.9053 40.7077 19.0532 40.4018 18.2887C40.0959 17.5243 39.5113 16.9044 38.766 16.5544C38.0207 16.2043 37.1704 16.1503 36.3867 16.403C37.538 19.3882 37.4535 23.0802 37.3495 26.3919Z" fill="#47280B"/>
<path fill-rule="evenodd" clip-rule="evenodd" d="M29.4913 18.492C28.7509 19.1429 27.7983 19.5012 26.8125 19.4995C25.9134 19.501 25.0394 19.2028 24.3287 18.6521C23.8013 19.1793 23.1751 19.5973 22.4859 19.8821C21.7968 20.167 21.0582 20.313 20.3125 20.312C19.7495 20.3124 19.1895 20.2291 18.6509 20.065C18.4392 20.2968 18.1951 20.4968 17.9262 20.6589C18.246 21.0395 18.4743 21.4884 18.5935 21.9711C18.7126 22.4538 18.7194 22.9573 18.6134 23.443C18.5074 23.9288 18.2913 24.3837 17.9819 24.7728C17.6724 25.1619 17.2779 25.4748 16.8285 25.6875C16.9626 25.8712 17.0426 26.0888 17.0595 26.3156C17.0764 26.5424 17.0295 26.7694 16.9241 26.971C16.8187 27.1725 16.6589 27.3405 16.463 27.456C16.2671 27.5715 16.0427 27.6299 15.8153 27.6245C15.417 28.3175 14.7773 28.8395 14.0184 29.0906C13.2595 29.3416 12.4347 29.3042 11.7017 28.9855C10.9686 28.6668 10.3788 28.0891 10.0448 27.3629C9.71083 26.6367 9.65621 25.8128 9.89138 25.0489C9.58861 24.7475 9.34846 24.3891 9.18475 23.9945C9.02104 23.5999 8.93702 23.1767 8.9375 22.7495C8.9375 21.8509 9.30231 21.0376 9.89138 20.4501C9.73445 19.9369 9.70708 19.3927 9.81171 18.8663C9.91634 18.3399 10.1497 17.8476 10.491 17.4333C10.0683 16.6885 9.81922 15.8579 9.76225 15.0035C9.70528 14.149 9.84193 13.2927 10.162 12.4984C10.4821 11.704 10.9773 10.9922 11.6108 10.416C12.2443 9.8397 12.9997 9.41386 13.8206 9.1702C13.7784 8.58628 13.8947 8.00181 14.1572 7.47852C14.4197 6.95523 14.8187 6.51256 15.312 6.19729C15.8053 5.88202 16.3746 5.70585 16.9597 5.6874C17.5449 5.66894 18.1241 5.80889 18.6363 6.09245C19.1355 5.22773 19.8536 4.50971 20.7183 4.01065C21.5831 3.51158 22.5641 3.24906 23.5625 3.24951C24.6781 3.24951 25.7189 3.57045 26.5972 4.1262C27.2005 3.47629 27.9577 2.98871 28.799 2.70839C29.6403 2.42807 30.5386 2.36404 31.4112 2.52221C32.2837 2.68037 33.1025 3.05563 33.7918 3.6134C34.4812 4.17117 35.0191 4.8935 35.3559 5.71382C35.7858 5.76954 36.2001 5.91067 36.5746 6.1289C36.9491 6.34714 37.2761 6.63808 37.5365 6.98459C37.7968 7.3311 37.9852 7.72619 38.0906 8.14661C38.196 8.56703 38.2162 9.00428 38.1501 9.43264C39.6573 10.549 40.625 12.278 40.625 14.2183C40.625 17.5836 37.7146 20.312 34.125 20.312C32.3107 20.312 30.6703 19.6149 29.4913 18.492Z" fill="#47280B"/>
<path d="M23.5059 37.375C23.5059 37.1595 23.5915 36.9528 23.7438 36.8005C23.8962 36.6481 24.1029 36.5625 24.3184 36.5625H31.747C31.9625 36.5625 32.1692 36.6481 32.3216 36.8005C32.4739 36.9528 32.5595 37.1595 32.5595 37.375C32.5595 38.4524 32.1315 39.4858 31.3697 40.2476C30.6078 41.0095 29.5745 41.4375 28.497 41.4375H27.5684C26.4909 41.4375 25.4576 41.0095 24.6957 40.2476C23.9339 39.4858 23.5059 38.4524 23.5059 37.375Z" fill="#66253C"/>
<path fill-rule="evenodd" clip-rule="evenodd" d="M29.8632 41.2041C29.4243 41.3606 28.9617 41.4404 28.4957 41.4397H27.5671C26.5178 41.4398 25.5091 41.0337 24.7525 40.3068C23.9958 39.5798 23.5498 38.5882 23.5078 37.5397C24.1286 37.3074 25.0499 37.3342 25.9591 37.361C26.2484 37.3691 26.536 37.3772 26.8122 37.3772C28.6079 37.3772 30.0622 38.6504 30.0622 40.221C30.0622 40.5663 29.9916 40.8978 29.8632 41.2041Z" fill="#B03E67"/>
<path d="M24.375 36.5625H32.5V37.375C32.5 37.5905 32.4144 37.7972 32.262 37.9495C32.1097 38.1019 31.903 38.1875 31.6875 38.1875H25.1875C24.972 38.1875 24.7653 38.1019 24.613 37.9495C24.4606 37.7972 24.375 37.5905 24.375 37.375V36.5625Z" fill="white"/>
<path d="M26.8125 30.4688C26.8125 29.7957 26.2668 29.25 25.5937 29.25C24.9207 29.25 24.375 29.7957 24.375 30.4688V31.2812C24.375 31.9543 24.9207 32.5 25.5937 32.5C26.2668 32.5 26.8125 31.9543 26.8125 31.2812V30.4688Z" fill="#1B0B47"/>
<path d="M34.9375 30.4688C34.9375 29.7957 34.3918 29.25 33.7187 29.25C33.0457 29.25 32.5 29.7957 32.5 30.4688V31.2812C32.5 31.9543 33.0457 32.5 33.7187 32.5C34.3918 32.5 34.9375 31.9543 34.9375 31.2812V30.4688Z" fill="#1B0B47"/>
<path d="M22.3437 31.6875H20.7187C20.0457 31.6875 19.5 32.2332 19.5 32.9062C19.5 33.5793 20.0457 34.125 20.7187 34.125H22.3437C23.0168 34.125 23.5625 33.5793 23.5625 32.9062C23.5625 32.2332 23.0168 31.6875 22.3437 31.6875Z" fill="#FF859B"/>
<path d="M36.9687 31.6875H36.1562C35.4832 31.6875 34.9375 32.2332 34.9375 32.9062C34.9375 33.5793 35.4832 34.125 36.1562 34.125H36.9687C37.6418 34.125 38.1875 33.5793 38.1875 32.9062C38.1875 32.2332 37.6418 31.6875 36.9687 31.6875Z" fill="#FF859B"/>
</g>
<defs>
<clipPath id="clip0_2173_10790">
<rect width="52" height="52" rx="26" fill="white"/>
</clipPath>
</defs>
</svg>
